<svg id="Layer_1" data-name="Layer 1" xmlns="http://www.w3.org/2000/svg" xmlns:xlink="http://www.w3.org/1999/xlink" viewBox="0 0 283.46 283.46"><defs><style>.cls-1{fill:url(#linear-gradient);}.cls-2{fill:url(#linear-gradient-2);}</style><linearGradient id="linear-gradient" x1="142.38" y1="66.97" x2="112.41" y2="155.05" gradientUnits="userSpaceOnUse"><stop offset="0" stop-color="#41bfe7"/><stop offset="1" stop-color="#6a4696"/></linearGradient><linearGradient id="linear-gradient-2" x1="167.78" y1="126.81" x2="148.41" y2="196.98" gradientUnits="userSpaceOnUse"><stop offset="0" stop-color="#feca17"/><stop offset="1" stop-color="#e83c5b"/></linearGradient></defs><path class="cls-1" d="M148,112.24l23.53-23.53c1.15-1.17-9-8.91-10-9.67C147.22,67.89,126.15,66.86,111,77c-13,8.67-20.6,24.5-18.22,40.07,2.7,17.66,16.29,30.55,28.81,42.08.95.87,12.86,12.3,12.95,12.21l14.26-14.26q-12.86-12.9-25.7-25.8c-4-4-8.85-8.14-9.21-14.34-.41-7.21,4.83-13.74,11.36-16.27a14.23,14.23,0,0,1,12.86,1.69C139.22,103.05,148.55,111.69,148,112.24Z"/><path class="cls-2" d="M135.47,171.16l-23.64,23.42c-1.16,1.16,9,9,10,9.72,14.25,11.22,35.32,12.34,50.48,2.29,13-8.61,20.72-24.4,18.41-40-2.62-17.68-16.14-30.62-28.61-42.21-.94-.88-12.8-12.37-12.9-12.27l-14.32,14.19q12.79,13,25.58,25.92c4,4.06,8.81,8.18,9.14,14.38.37,7.21-4.9,13.72-11.44,16.22a14.2,14.2,0,0,1-12.84-1.75C144.21,180.39,134.91,171.71,135.47,171.16Z"/></svg>